<?xml version="1.0" encoding="UTF-8" standalone="no"?>
<!-- Created with Inkscape (http://www.inkscape.org/) -->

<svg
   xmlns:dc="http://purl.org/dc/elements/1.1/"
   xmlns:cc="http://creativecommons.org/ns#"
   xmlns:rdf="http://www.w3.org/1999/02/22-rdf-syntax-ns#"
   xmlns:svg="http://www.w3.org/2000/svg"
   xmlns="http://www.w3.org/2000/svg"
   xmlns:sodipodi="http://sodipodi.sourceforge.net/DTD/sodipodi-0.dtd"
   xmlns:inkscape="http://www.inkscape.org/namespaces/inkscape"
   version="1.1"
   id="svg96"
   width="153.60001"
   height="153.60001"
   viewBox="0 0 153.60001 153.60001"
   sodipodi:docname="about.svg"
   inkscape:version="0.92.5 (2060ec1f9f, 2020-04-08)">
  <metadata
     id="metadata102">
    <rdf:RDF>
      <cc:Work
         rdf:about="">
        <dc:format>image/svg+xml</dc:format>
        <dc:type
           rdf:resource="http://purl.org/dc/dcmitype/StillImage" />
        <dc:title></dc:title>
      </cc:Work>
    </rdf:RDF>
  </metadata>
  <defs
     id="defs100" />
  <sodipodi:namedview
     pagecolor="#ffffff"
     bordercolor="#666666"
     borderopacity="1"
     objecttolerance="10"
     gridtolerance="10"
     guidetolerance="10"
     inkscape:pageopacity="0"
     inkscape:pageshadow="2"
     inkscape:window-width="1920"
     inkscape:window-height="983"
     id="namedview98"
     showgrid="false"
     inkscape:zoom="3.7058655"
     inkscape:cx="129.13557"
     inkscape:cy="96.022612"
     inkscape:window-x="1920"
     inkscape:window-y="28"
     inkscape:window-maximized="1"
     inkscape:current-layer="svg96" />
  <path
     style="fill:#000000;stroke-width:0.31761068"
     d="m 71.115239,153.01882 c -9.7238,-1.04291 -17.716225,-3.0958 -25.23717,-6.48231 C 21.883162,135.73219 5.4100867,113.81743 1.494014,87.490729 0.74190997,82.434532 0.74190997,71.547538 1.494014,66.491341 6.5609876,32.427437 32.427438,6.5609875 66.491342,1.4940142 c 5.056196,-0.75210462 15.943191,-0.75210462 20.999387,0 34.063901,5.0669733 59.930351,30.9334228 64.997321,64.9973268 0.75212,5.056197 0.75212,15.943191 0,20.999388 -5.04905,33.943501 -30.96088,59.946571 -64.718464,64.946361 -3.219741,0.47688 -14.091395,0.85662 -16.654347,0.58173 z m 13.879922,-5.35441 c 13.570742,-1.58746 26.374779,-6.96243 36.937789,-15.506 3.6257,-2.93255 9.16808,-8.7248 12.02747,-12.56973 10.86016,-14.60328 15.78691,-32.795281 13.70398,-50.601771 -1.86179,-15.916003 -8.60778,-30.146188 -19.67327,-41.499367 -6.07364,-6.231549 -12.02669,-10.562678 -19.71544,-14.343918 -19.746227,-9.7109651 -42.823082,-9.7109651 -62.569305,0 -7.688755,3.78124 -13.641811,8.112369 -19.715448,14.343918 -7.597233,7.794759 -13.032404,16.711967 -16.4506394,26.989728 -8.4351482,25.362346 -2.1333878,52.95006 16.4506394,72.01727 6.073637,6.23155 12.026693,10.56267 19.715448,14.34391 12.15928,5.97979 25.986143,8.38205 39.288776,6.82596 z M 63.968998,116.37477 v -9.52832 h 7.940267 7.940266 v 9.52832 9.52832 h -7.940266 -7.940267 z m 1.588053,-30.455981 c 0,-10.369528 0.981662,-14.168889 4.471622,-17.306663 3.005003,-2.701755 6.073526,-3.3668 15.550524,-3.370288 8.830389,-0.0033 11.080117,-0.628564 13.299664,-3.69668 1.549089,-2.141324 2.091779,-4.075231 2.091779,-7.454113 0,-2.858501 -0.0696,-3.185568 -1.111637,-5.226492 -1.275035,-2.497186 -2.929554,-3.946488 -5.492799,-4.81151 C 92.85896,43.544396 90.627595,43.486485 69.130171,43.398126 L 45.547579,43.301195 V 36.16651 29.031824 l 21.994539,0.0011 c 22.736427,0.0011 27.292955,0.18753 31.617101,1.29346 8.189121,2.094425 13.500821,7.30524 15.677761,15.380015 0.57094,2.117749 0.68521,3.413606 0.68621,7.781461 9.5e-4,4.621105 -0.0949,5.600169 -0.81191,8.282639 -1.84769,6.912837 -5.54741,11.636194 -11.19975,14.298483 -3.587603,1.689784 -5.13573,1.940038 -12.863236,2.079346 -7.525708,0.135668 -9.218293,0.377941 -10.431925,1.493202 -1.583458,1.455113 -1.786316,2.267698 -1.954891,7.830678 l -0.158805,5.240575 -6.272811,0.08611 -6.272811,0.08611 z"
     id="path106"
     inkscape:connector-curvature="0" />
</svg>
