<?xml version="1.0" encoding="UTF-8" standalone="no"?>
<!-- Created with Inkscape (http://www.inkscape.org/) -->

<svg
   xmlns:dc="http://purl.org/dc/elements/1.1/"
   xmlns:cc="http://creativecommons.org/ns#"
   xmlns:rdf="http://www.w3.org/1999/02/22-rdf-syntax-ns#"
   xmlns:svg="http://www.w3.org/2000/svg"
   xmlns="http://www.w3.org/2000/svg"
   xmlns:sodipodi="http://sodipodi.sourceforge.net/DTD/sodipodi-0.dtd"
   xmlns:inkscape="http://www.inkscape.org/namespaces/inkscape"
   version="1.1"
   id="svg3783"
   width="682.66669"
   height="682.66669"
   viewBox="0 0 682.66669 682.66669"
   sodipodi:docname="instagram.svg"
   inkscape:version="0.92.5 (2060ec1f9f, 2020-04-08)">
  <metadata
     id="metadata3789">
    <rdf:RDF>
      <cc:Work
         rdf:about="">
        <dc:format>image/svg+xml</dc:format>
        <dc:type
           rdf:resource="http://purl.org/dc/dcmitype/StillImage" />
        <dc:title></dc:title>
      </cc:Work>
    </rdf:RDF>
  </metadata>
  <defs
     id="defs3787" />
  <sodipodi:namedview
     pagecolor="#ffffff"
     bordercolor="#666666"
     borderopacity="1"
     objecttolerance="10"
     gridtolerance="10"
     guidetolerance="10"
     inkscape:pageopacity="0"
     inkscape:pageshadow="2"
     inkscape:window-width="1920"
     inkscape:window-height="1011"
     id="namedview3785"
     showgrid="false"
     inkscape:zoom="1.2202148"
     inkscape:cx="232.02992"
     inkscape:cy="286.13104"
     inkscape:window-x="0"
     inkscape:window-y="0"
     inkscape:window-maximized="1"
     inkscape:current-layer="svg3783" />
  <path
     style="fill:#000000;stroke-width:0.48517966"
     d="m 195.64537,635.04654 c -24.78632,-2.04265 -44.5106,-7.59369 -64.99198,-18.29088 -42.916986,-22.41496 -74.249016,-64.2112 -83.429146,-111.29265 -3.17994,-16.30873 -2.95493,-4.08808 -2.95493,-160.48385 0,-115.08878 0.12162,-142.71943 0.64815,-147.25203 3.64241,-31.35537 14.6386,-58.17438 34.21611,-83.45091 5.2599,-6.79107 19.57847,-21.047571 26.510966,-26.396061 24.54641,-18.93782 50.24147,-29.62796 80.78241,-33.60865 6.44081,-0.83949 14.14078,-0.88533 148.70757,-0.88533 134.56682,0 142.26676,0.0459 148.70757,0.88533 36.15263,4.71211 67.72609,19.82425 93.27783,44.646 24.17175,23.481191 40.43599,53.868331 46.39414,86.680131 2.59649,14.29897 2.48568,7.20469 2.48568,159.13893 0,133.55182 -0.0488,141.80084 -0.8757,148.0896 -4.72328,35.91974 -19.68641,67.42119 -44.07552,92.791 -23.46999,24.41375 -54.06478,40.90637 -87.29493,47.05772 -13.73573,2.54268 -3.89192,2.38703 -155.70799,2.46209 -77.25273,0.0383 -141.33284,-0.005 -142.40023,-0.0904 z M 349.9325,505.32304 c 20.72337,-1.91176 40.40752,-7.69743 59.19192,-17.39792 9.38177,-4.84486 14.61345,-8.11807 22.88804,-14.32003 37.0923,-27.80142 60.04169,-69.02965 64.25067,-115.42529 0.71928,-7.92908 0.2929,-27.75059 -0.75887,-35.27632 -5.02331,-35.94348 -20.87806,-67.83839 -46.3119,-93.16535 -25.09098,-24.98552 -55.24023,-40.07599 -91.25439,-45.67514 -6.22715,-0.96814 -8.84605,-1.09376 -22.80345,-1.09376 -13.95739,0 -16.5763,0.12562 -22.80344,1.09376 -30.36509,4.72089 -55.58589,15.76513 -79.30499,34.72783 -6.47007,5.17262 -18.4297,17.18194 -23.71687,23.81543 -20.20415,25.34885 -32.28936,55.13062 -35.24189,86.84716 -1.13337,12.1748 -0.37268,30.90266 1.73421,42.69581 7.47605,41.84645 30.6933,78.75747 65.09237,103.48451 22.7934,16.38456 50.92877,27.0099 78.47227,29.63516 6.28134,0.59866 24.31738,0.63064 30.56632,0.0541 z m -24.93478,-64.55547 c -33.54425,-3.7933 -62.28755,-23.9793 -76.98145,-54.06296 -13.15318,-26.92926 -13.15709,-58.09212 -0.0107,-84.90644 14.99462,-30.584 43.78366,-50.58092 77.8406,-54.06823 17.49042,-1.79095 35.71985,1.51607 51.74152,9.38649 10.08562,4.95442 16.84338,9.69734 24.92361,17.49257 15.27169,14.73306 24.7898,33.03801 28.51769,54.84441 1.18421,6.92712 1.18358,22.40927 -0.001,29.53659 -3.61652,21.75541 -13.45507,40.55648 -28.92877,55.28171 -14.56565,13.86111 -31.90894,22.48091 -51.92393,25.80676 -5.6201,0.93388 -19.62347,1.31715 -25.17737,0.6891 z M 538.86278,180.96952 c 7.4362,-2.35876 14.26899,-7.7592 18.13257,-14.33145 3.13678,-5.33591 4.3654,-9.9681 4.3654,-16.45855 0,-4.70024 -0.19965,-6.19127 -1.2668,-9.461 -1.77256,-5.43125 -4.34828,-9.60257 -8.45775,-13.69717 -2.79769,-2.78762 -4.45351,-3.95771 -8.00546,-5.65715 -5.63464,-2.69592 -8.62548,-3.40113 -14.42435,-3.40113 -5.56423,0 -8.70213,0.70015 -13.82762,3.08531 -8.76069,4.07678 -15.4159,12.269 -17.75335,21.85344 -1.09433,4.48706 -0.77105,12.19358 0.70215,16.7387 3.22683,9.95572 10.39997,17.44401 20.07334,20.95524 6.5099,2.36297 13.7725,2.49563 20.46187,0.37376 z"
     id="path3842"
     inkscape:connector-curvature="0" />
</svg>
