<?xml version="1.0" encoding="UTF-8" standalone="no"?>
<!-- Created with Inkscape (http://www.inkscape.org/) -->

<svg
   xmlns:dc="http://purl.org/dc/elements/1.1/"
   xmlns:cc="http://creativecommons.org/ns#"
   xmlns:rdf="http://www.w3.org/1999/02/22-rdf-syntax-ns#"
   xmlns:svg="http://www.w3.org/2000/svg"
   xmlns="http://www.w3.org/2000/svg"
   xmlns:sodipodi="http://sodipodi.sourceforge.net/DTD/sodipodi-0.dtd"
   xmlns:inkscape="http://www.inkscape.org/namespaces/inkscape"
   version="1.1"
   id="svg3783"
   width="682.66669"
   height="682.66669"
   viewBox="0 0 682.66669 682.66669"
   sodipodi:docname="mail.svg"
   inkscape:version="0.92.5 (2060ec1f9f, 2020-04-08)">
  <metadata
     id="metadata3789">
    <rdf:RDF>
      <cc:Work
         rdf:about="">
        <dc:format>image/svg+xml</dc:format>
        <dc:type
           rdf:resource="http://purl.org/dc/dcmitype/StillImage" />
        <dc:title />
      </cc:Work>
    </rdf:RDF>
  </metadata>
  <defs
     id="defs3787" />
  <sodipodi:namedview
     pagecolor="#ffffff"
     bordercolor="#666666"
     borderopacity="1"
     objecttolerance="10"
     gridtolerance="10"
     guidetolerance="10"
     inkscape:pageopacity="0"
     inkscape:pageshadow="2"
     inkscape:window-width="1920"
     inkscape:window-height="983"
     id="namedview3785"
     showgrid="false"
     inkscape:zoom="0.86282216"
     inkscape:cx="563.60546"
     inkscape:cy="247.23017"
     inkscape:window-x="1920"
     inkscape:window-y="28"
     inkscape:window-maximized="1"
     inkscape:current-layer="svg3783" />
  <path
     style="fill:#000000;stroke-width:0.60413712"
     d="m 122.6861,530.48825 -26.279965,-0.34928 -5.43723,-1.67389 c -10.72105,-3.30056 -18.9909,-8.20115 -26.63635,-15.78432 -8.06554,-7.99984 -13.27745,-17.02469 -16.40634,-28.40895 l -1.66043,-6.04137 -0.077,-151.63842 c -0.083,-163.51546 -0.19499,-157.41 3.06295,-166.96286 7.46921,-21.901 26.12243,-37.67472 48.99216,-41.42926 5.508075,-0.90426 25.857265,-0.97294 241.025315,-0.81348 l 235.00934,0.17416 5.7393,1.59742 c 18.41758,5.12616 32.11287,16.31571 40.19208,32.8384 1.78723,3.65503 3.80948,8.87976 4.4939,11.61051 1.2424,4.95707 1.24414,5.21271 1.08538,159.79427 l -0.15901,154.82926 -1.66194,6.04137 c -4.89435,17.79157 -15.9283,31.61571 -31.74592,39.77359 -6.25301,3.22497 -11.284,4.91869 -18.24586,6.1426 -4.49946,0.79102 -31.12399,0.88711 -215.07282,0.77616 -115.4657,-0.0696 -221.76362,-0.2838 -236.2176,-0.47591 z m 410.2091,-30.70261 c 0,-0.27268 -30.6029,-31.0385 -68.00644,-68.36848 l -68.00644,-67.8727 -26.99413,26.95241 c -14.84676,14.82382 -27.75943,27.23897 -28.69482,27.58923 -2.2202,0.83136 -6.78642,0.81496 -8.45831,-0.0304 -0.72577,-0.36696 -13.89352,-13.21166 -29.26165,-28.54376 l -27.94207,-27.87656 -68.8709,68.86892 c -37.87901,37.87792 -68.87092,69.07328 -68.87092,69.32304 0,0.24975 88.89878,0.45409 197.55284,0.45409 108.65407,0 197.55284,-0.22311 197.55284,-0.4958 z m 48.48326,-3.88654 c 6.06058,-3.18934 10.34551,-9.20528 12.5847,-17.66866 0.65045,-2.45847 0.83472,-31.77848 0.99,-157.52875 0.10493,-84.97944 -0.0179,-154.50807 -0.27286,-154.50807 -0.255,0 -39.95187,39.48754 -88.21528,87.75009 l -87.75164,87.75009 78.3806,78.38234 c 64.32487,64.3263 78.59837,78.31683 79.59502,78.01701 0.66792,-0.20093 2.77819,-1.18826 4.68946,-2.19405 z m -406.56859,-77.04208 79.00615,-79.00787 -86.32546,-86.22363 c -47.479,-47.42299 -86.502435,-86.22362 -86.718755,-86.22362 -0.21632,0 -0.31611,70.34421 -0.22176,156.32047 0.1541,140.41642 0.26857,156.6278 1.12514,159.34116 1.26909,4.02008 3.11012,7.47128 5.11314,9.5851 2.01393,2.12533 6.79916,5.21626 8.07558,5.21626 0.5169,0 36.492585,-35.55354 79.945965,-79.00787 z m 165.74786,-44.53275 c 1.46716,-0.61301 37.79274,-36.43954 113.70941,-112.14722 61.35445,-61.18554 111.64415,-111.4824 111.75491,-111.77079 0.11361,-0.29581 -99.81147,-0.51905 -229.27004,-0.51219 l -229.4714,0.0122 111.53485,111.4451 c 85.44126,85.37251 112.15413,111.72609 114.18191,112.64615 3.18978,1.4473 4.7203,1.51346 7.56036,0.3268 z"
     id="path3874"
     inkscape:connector-curvature="0" />
</svg>
